<svg width="24" height="24" viewBox="0 0 24 24" fill="none" xmlns="http://www.w3.org/2000/svg">
<path d="M20 10.2221C20 16.4443 12 21.7777 12 21.7777C12 21.7777 4 16.4443 4 10.2221C4 8.10037 4.84285 6.06554 6.34315 4.56525C7.84344 3.06496 9.87827 2.22211 12 2.22211C14.1217 2.22211 16.1566 3.06496 17.6569 4.56525C19.1571 6.06554 20 8.10037 20 10.2221Z" stroke="#3B3B3B" stroke-width="2" stroke-linecap="round" stroke-linejoin="round"/>
<path d="M12.0016 12.8889C13.4744 12.8889 14.6683 11.695 14.6683 10.2222C14.6683 8.74945 13.4744 7.55554 12.0016 7.55554C10.5289 7.55554 9.33496 8.74945 9.33496 10.2222C9.33496 11.695 10.5289 12.8889 12.0016 12.8889Z" stroke="#3B3B3B" stroke-width="2" stroke-linecap="round" stroke-linejoin="round"/>
</svg>
