<svg width="16" height="16" viewBox="0 0 16 16" fill="none" xmlns="http://www.w3.org/2000/svg">
<circle cx="8" cy="8" r="8" fill="#3B3B3B"/>
<path d="M8.46319 9.61828H7.31191C7.31191 9.28853 7.33333 9.00896 7.37617 8.77957C7.42258 8.5466 7.49933 8.33692 7.60643 8.15054C7.71352 7.96416 7.8581 7.76702 8.04016 7.55914C8.1651 7.40502 8.28112 7.25806 8.38822 7.11828C8.49888 6.97491 8.58635 6.82616 8.6506 6.67204C8.71843 6.51434 8.75234 6.33154 8.75234 6.12366C8.75234 5.90143 8.72378 5.71326 8.66667 5.55914C8.60955 5.40502 8.52744 5.28853 8.42035 5.20968C8.31325 5.12724 8.17938 5.08602 8.01874 5.08602C7.89737 5.08602 7.77778 5.12186 7.65997 5.19355C7.54574 5.26165 7.44935 5.36738 7.37082 5.51075C7.29228 5.65412 7.25301 5.8405 7.25301 6.06989H6C6.00714 5.6147 6.09817 5.23297 6.27309 4.92473C6.45158 4.61649 6.69255 4.3853 6.99598 4.23118C7.29942 4.07706 7.64034 4 8.01874 4C8.43641 4 8.79161 4.08244 9.08434 4.24731C9.38063 4.4086 9.60732 4.64516 9.76439 4.95699C9.92146 5.26882 10 5.64158 10 6.07527C10 6.39427 9.94467 6.681 9.834 6.93548C9.72334 7.18996 9.58054 7.42832 9.40562 7.65054C9.23427 7.86918 9.05399 8.08602 8.86479 8.30108C8.70772 8.48387 8.60241 8.6828 8.54886 8.89785C8.49531 9.10932 8.46676 9.34946 8.46319 9.61828ZM7.22624 11.2957C7.22624 11.095 7.28693 10.9265 7.4083 10.7903C7.53324 10.6505 7.70281 10.5806 7.917 10.5806C8.13476 10.5806 8.30433 10.6505 8.4257 10.7903C8.54708 10.9265 8.60776 11.095 8.60776 11.2957C8.60776 11.4928 8.54708 11.6595 8.4257 11.7957C8.30433 11.9319 8.13476 12 7.917 12C7.70281 12 7.53324 11.9319 7.4083 11.7957C7.28693 11.6595 7.22624 11.4928 7.22624 11.2957Z" fill="white"/>
</svg>
