<svg width="24" height="24" viewBox="0 0 24 24" fill="none" xmlns="http://www.w3.org/2000/svg">
<path d="M8.22233 22.005C9.14281 22.005 9.889 21.2588 9.889 20.3384C9.889 19.4179 9.14281 18.6717 8.22233 18.6717C7.30186 18.6717 6.55566 19.4179 6.55566 20.3384C6.55566 21.2588 7.30186 22.005 8.22233 22.005Z" fill="#3B3B3B"/>
<path d="M18.2223 22.005C19.1428 22.005 19.889 21.2588 19.889 20.3384C19.889 19.4179 19.1428 18.6717 18.2223 18.6717C17.3019 18.6717 16.5557 19.4179 16.5557 20.3384C16.5557 21.2588 17.3019 22.005 18.2223 22.005Z" fill="#3B3B3B"/>
<path d="M1 1.90399H4.63636L7.07273 14.0767C7.15586 14.4953 7.38355 14.8712 7.71595 15.1388C8.04835 15.4064 8.46427 15.5485 8.89091 15.5404H17.7273C18.1539 15.5485 18.5698 15.4064 18.9022 15.1388C19.2346 14.8712 19.4623 14.4953 19.5455 14.0767L21 6.44945H5.54545" stroke="#3B3B3B" stroke-width="2" stroke-linecap="round" stroke-linejoin="round"/>
</svg>
