<svg width="48" height="48" viewBox="0 0 48 48" fill="none" xmlns="http://www.w3.org/2000/svg">
<rect width="48" height="48" rx="4" fill="#28D146"/>
<path d="M29.8757 18.0917C29.1117 17.3199 28.2016 16.7081 27.1987 16.2917C26.1957 15.8754 25.1199 15.6629 24.034 15.6667C19.484 15.6667 15.7757 19.375 15.7757 23.925C15.7757 25.3833 16.159 26.8 16.8757 28.05L15.709 32.3333L20.084 31.1833C21.2923 31.8417 22.6507 32.1917 24.034 32.1917C28.584 32.1917 32.2923 28.4833 32.2923 23.9333C32.2923 21.725 31.434 19.65 29.8757 18.0917ZM24.034 30.7917C22.8007 30.7917 21.5923 30.4583 20.534 29.8333L20.284 29.6833L17.684 30.3667L18.3757 27.8333L18.209 27.575C17.5238 26.4808 17.1599 25.216 17.159 23.925C17.159 20.1417 20.2423 17.0583 24.0257 17.0583C25.859 17.0583 27.584 17.775 28.8757 19.075C29.5152 19.7116 30.0221 20.4689 30.3668 21.3029C30.7116 22.1368 30.8873 23.0309 30.884 23.9333C30.9007 27.7167 27.8173 30.7917 24.034 30.7917ZM27.8007 25.6583C27.5923 25.5583 26.5757 25.0583 26.3923 24.9833C26.2007 24.9167 26.0673 24.8833 25.9257 25.0833C25.784 25.2917 25.3923 25.7583 25.2757 25.8917C25.159 26.0333 25.034 26.05 24.8257 25.9417C24.6173 25.8417 23.9507 25.6167 23.1673 24.9167C22.5507 24.3667 22.1423 23.6917 22.0173 23.4833C21.9007 23.275 22.0007 23.1667 22.109 23.0583C22.2007 22.9667 22.3173 22.8167 22.4173 22.7C22.5173 22.5833 22.559 22.4917 22.6257 22.3583C22.6923 22.2167 22.659 22.1 22.609 22C22.559 21.9 22.1423 20.8833 21.9757 20.4667C21.809 20.0667 21.634 20.1167 21.509 20.1083H21.109C20.9673 20.1083 20.7507 20.1583 20.559 20.3667C20.3757 20.575 19.8423 21.075 19.8423 22.0917C19.8423 23.1083 20.584 24.0917 20.684 24.225C20.784 24.3667 22.1423 26.45 24.209 27.3417C24.7007 27.5583 25.084 27.6833 25.384 27.775C25.8757 27.9333 26.3257 27.9083 26.684 27.8583C27.084 27.8 27.909 27.3583 28.0757 26.875C28.2507 26.3917 28.2507 25.9833 28.1923 25.8917C28.134 25.8 28.009 25.7583 27.8007 25.6583Z" fill="white"/>
</svg>
